<svg xmlns="http://www.w3.org/2000/svg" viewBox="0 0 489.51 125.39"><defs><style>.cls-1{fill:#60bb45;}.cls-1,.cls-2,.cls-3,.cls-4,.cls-5,.cls-6,.cls-7,.cls-8{fill-rule:evenodd;}.cls-2{fill:#fff;}.cls-3{fill:#ec008b;}.cls-4{fill:#3eb3ef;}.cls-5{fill:#faa518;}.cls-6{fill:#ed1b23;}.cls-7{fill:#8362aa;}.cls-8{fill:#f5811e;}</style></defs><title>logoCHO</title><g id="Слой_2" data-name="Слой 2"><g id="Layer_1" data-name="Layer 1"><path class="cls-1" d="M199.62.5a62.69,62.69,0,1,1-69.8,54.33A62.62,62.62,0,0,1,199.62.5Z"/><path class="cls-2" d="M188.24,123a60.58,60.58,0,1,0-56.73-64,60.45,60.45,0,0,0,56.73,64Z"/><path class="cls-1" d="M155.4,21.18q-17.24,15.33-18.56,38.14a53.43,53.43,0,0,0,13.94,40.11,53.39,53.39,0,0,0,38.14,18.48,51.6,51.6,0,0,0,39.65-14.26,55.16,55.16,0,0,0,18.11-38.56q1.33-23-13.57-39.77T195.35,7.17q-22.71-1.32-40,14Zm16.2,40.48a20.67,20.67,0,0,1,36-12.58,20.11,20.11,0,0,1,5,15,19.87,19.87,0,0,1-21.38,19.11A20.5,20.5,0,0,1,177,76.34a19.13,19.13,0,0,1-5.43-14.68Z"/><path class="cls-2" d="M165,22.48c-.35,1.56,0,2.47,1.64,2.83s2.49-.17,2.86-1.8-.4-2.23-1.87-2.56-2.29,0-2.63,1.53Z"/><path class="cls-2" d="M153.85,33.29a18.32,18.32,0,0,0-1.77,2.62c-4,7-7.91,15.78-8.39,24a37.19,37.19,0,0,0,.44,8.38c1.94,11.42,6.52,21.69,14.85,29.82s18.56,12.26,30.19,12.94c4.45.26,9.54-.62,13.88-1.53,1.58-.33,6-1.3,8.53-2.95s1.52-4.89-1.41-3.48c-.66.32-1.33.68-1.66.83a46.07,46.07,0,0,1-4.78,1.71A39.81,39.81,0,0,1,190,107.2c-12.22-.71-22.32-6-30.54-15s-12.37-19.64-11.66-31.92c.48-8.23,3.81-16.12,8-23.09.15-.25.54-.89.89-1.52,1.41-2.58-1.1-4.47-2.89-2.37Z"/><path class="cls-2" d="M222.22,36.4a40.13,40.13,0,1,0-4.47,56.7,39.94,39.94,0,0,0,4.47-56.7Z"/><path class="cls-3" d="M26.18,92.73l-7.69.5a15.42,15.42,0,0,1-12.3-4.76A17.44,17.44,0,0,1,1.25,77.14L0,58.1a17.17,17.17,0,0,1,3.63-12,15.58,15.58,0,0,1,11.51-6,15.2,15.2,0,0,1,12,4.33l.2.2a15,15,0,0,1,11.31-6,15.38,15.38,0,0,1,11.91,4.21,16.5,16.5,0,0,1,5.05,11.13l2.07,32.43a19.88,19.88,0,0,1-2.65,12,15.3,15.3,0,0,1-12.41,7.18A15.53,15.53,0,0,1,26.18,92.73Z"/><path class="cls-2" d="M27.77,90.73l-9.4.61A13.53,13.53,0,0,1,7.54,87.14,15.54,15.54,0,0,1,3.14,77L1.92,58A15.27,15.27,0,0,1,5.15,47.31,13.69,13.69,0,0,1,15.3,42a13.32,13.32,0,0,1,10.51,3.79,14.65,14.65,0,0,1,1.72,2q.35-.65.76-1.27a13.18,13.18,0,0,1,10.48-6A13.5,13.5,0,0,1,49.25,44.3a14.61,14.61,0,0,1,4.47,9.88L55.79,86.6a18,18,0,0,1-2.37,10.85,13.41,13.41,0,0,1-10.93,6.3,13.81,13.81,0,0,1-9.52-3c-3.22-2.49-4.72-6.16-5.2-10.07Z"/><path class="cls-3" d="M50.14,87,48.07,54.54a8.92,8.92,0,0,0-2.72-6.12,7.86,7.86,0,0,0-6.22-2.13A7.47,7.47,0,0,0,33,49.75a11.06,11.06,0,0,0-1.69,7.1l.76,11.85-6.7.43-.83-13.08a9.15,9.15,0,0,0-2.69-6.16,7.69,7.69,0,0,0-6.18-2.17,8,8,0,0,0-6.07,3.12,9.57,9.57,0,0,0-2,6.77l1.21,19a9.7,9.7,0,0,0,2.79,6.5A7.8,7.8,0,0,0,18,85.66l15.08-1,.14,2.14q0,1.46.06,2.15.33,5.12,3.14,7.32a8.2,8.2,0,0,0,5.7,1.78,7.85,7.85,0,0,0,6.5-3.64A12.57,12.57,0,0,0,50.14,87Z"/><path class="cls-2" d="M37.74,52.06A1.28,1.28,0,0,0,36.2,50.7a1.58,1.58,0,0,0-1,.52,1.32,1.32,0,0,0-.47,1,1.35,1.35,0,0,0,1.62,1.43q1.45-.09,1.35-1.62Z"/><path class="cls-2" d="M36.68,55.74a1.08,1.08,0,0,0-1.3-1.14q-1.37.09-1.29,1.31l.8,12.62q.08,1.22,1.37,1.14t1.22-1.31l-.8-12.62Z"/><path class="cls-2" d="M14.66,53.55q-.09-1.45-1.62-1.35-1.3.08-1.2,1.54t1.39,1.45a1.35,1.35,0,0,0,1.43-1.63Z"/><path class="cls-2" d="M14.34,77.37l-1.27-20Q13,56,11.76,56.11t-1.21,1.46l1.27,20q.21,3.36,1.89,3.26,1.3-.08,1.22-1.31a3.68,3.68,0,0,0-.3-1.06,3.69,3.69,0,0,1-.3-1.06Z"/><path class="cls-2" d="M32.73,79,22,79.64q-1.37.09-1.29,1.39t1.45,1.21l10.74-.69q1.9-.12,2.43.92t1,6.77q.55,6.26,5.35,6,1.52-.1,1.43-1.55,0-.76-1.3-1.22l-2.11-.71q-.8-.56-1-2.93,0-.46,0-1.69l-.12-1.84q-.42-6.65-5.91-6.3Z"/><path class="cls-4" d="M79,43.13A14.88,14.88,0,0,1,91.5,35.31,16,16,0,0,1,102.76,39a15.06,15.06,0,0,1,5.8,10.95,16.51,16.51,0,0,1-1.33,7.6L91.53,94a14.93,14.93,0,0,1-13.25,9.3,16.09,16.09,0,0,1-17-14.93,18.58,18.58,0,0,1,1.27-7.88l.4-1-10.1-17.8a18.46,18.46,0,0,1-2.49-7.92A16,16,0,0,1,79,43.13Z"/><path class="cls-2" d="M79.26,47.13l.63-1.53A13.07,13.07,0,0,1,91.63,37.2a14.16,14.16,0,0,1,10,3.26,13.16,13.16,0,0,1,5.1,9.59,14.6,14.6,0,0,1-1.18,6.73L89.8,93.3a13,13,0,0,1-11.64,8.16,14.2,14.2,0,0,1-15-13.16,16.68,16.68,0,0,1,1.15-7.07L65,79.33,54.5,60.75a16.57,16.57,0,0,1-2.25-7.11A13.84,13.84,0,0,1,65.3,38.82c6.2-.4,11.06,2.7,13.89,8.18l.06.12Z"/><path class="cls-4" d="M59.42,57.93,71.3,78.87l-1.7,4.4a12.8,12.8,0,0,0-.77,4.65,8,8,0,0,0,2.89,5.76,8.17,8.17,0,0,0,6.09,2.1A7.43,7.43,0,0,0,84.6,91l15.69-36.51a9.34,9.34,0,0,0,.73-4.11,7.48,7.48,0,0,0-3-5.52,8.52,8.52,0,0,0-6-2,7.46,7.46,0,0,0-6.87,4.89L79.83,60.6l-5.66-11q-2.87-5.49-8.5-5.13a8.08,8.08,0,0,0-5.74,2.75,8,8,0,0,0-2,6,11,11,0,0,0,1.52,4.66Z"/><path class="cls-2" d="M61.75,50.19q.11,1.68,1.55,1.59A1.49,1.49,0,0,0,64.87,50q-.09-1.45-1.77-1.34a1.28,1.28,0,0,0-1.35,1.54Z"/><path class="cls-2" d="M62.57,53.36q-1.22.08-1.12,1.53a2.82,2.82,0,0,0,.47,1.35L73.19,76.29a5.46,5.46,0,0,0,.83,1,2.26,2.26,0,0,1,.47,1.43,18.09,18.09,0,0,1-1.44,3.77,12.07,12.07,0,0,0-1.35,5.22,5.27,5.27,0,0,0,1.84,3.68,5,5,0,0,0,3.83,1.4q1.6-.1,1.5-1.63,0-.69-2.29-1.16a2.75,2.75,0,0,1-2.39-2.76,10.15,10.15,0,0,1,1.39-4.54A10.16,10.16,0,0,0,77,78.12,7.18,7.18,0,0,0,75.8,75.2q-.93-1.4-1.78-2.8l-9.5-17.25a10.52,10.52,0,0,0-.79-1.56,2.26,2.26,0,0,0-1.16-.23Z"/><path class="cls-2" d="M86.52,51.81l-3,6.33q-2.42,5.22-2.36,6.06.08,1.22,1.37,1.14a1.26,1.26,0,0,0,1.1-.68l5.15-11.53A3.22,3.22,0,0,0,89,51.81Q89,50.58,87.6,50.67q-.61,0-1.07,1.14Z"/><path class="cls-2" d="M88.15,48.49q.1,1.6,1.55,1.51t1.36-1.39q-.1-1.53-1.31-1.45-1.67.11-1.6,1.33Z"/><path class="cls-5" d="M110.3,43.16a16.07,16.07,0,0,1,28.89-1.9l18.35,33.45a17.45,17.45,0,0,1,2.17,7.3,16.09,16.09,0,0,1-15,17.05L112.29,101a15.84,15.84,0,0,1-11.46-3.89,15.46,15.46,0,0,1-5.55-10.94,16.45,16.45,0,0,1,1.09-7l13.92-36Z"/><path class="cls-2" d="M112.06,43.84a14.18,14.18,0,0,1,25.48-1.67L155.9,75.62a15.54,15.54,0,0,1,1.94,6.5,14.2,14.2,0,0,1-13.27,15L112.18,99.1a14,14,0,0,1-10.12-3.44A13.57,13.57,0,0,1,97.17,86a14.54,14.54,0,0,1,1-6.21l13.92-36Z"/><path class="cls-5" d="M117.34,45.9l-13.92,36a8.92,8.92,0,0,0-.6,3.78,7.88,7.88,0,0,0,2.91,5.66,8.27,8.27,0,0,0,6.11,2.09l32.39-1.94a8.24,8.24,0,0,0,5.83-2.86,8.12,8.12,0,0,0,2.12-6.14,9.94,9.94,0,0,0-1.25-4.12L132.58,44.92a8.53,8.53,0,0,0-15.24,1Zm4.91,32.79,4.06-11.58,5.57,11-9.63.62Z"/><path class="cls-2" d="M120.54,47.07q.1,1.52,1.54,1.43a1.35,1.35,0,0,0,1.42-1.62q-.1-1.6-1.62-1.5t-1.34,1.69Z"/><path class="cls-2" d="M121.49,50.07q-.07-1.14-1.36-1.06-.76,0-1.21,1.3L106.29,82.78a5.56,5.56,0,0,0-.38,2.39,5.43,5.43,0,0,0,.76,2.4q.78,1.48,1.84,1.41a1.08,1.08,0,0,0,1.14-1.3,3.13,3.13,0,0,0-.57-1.22,3.19,3.19,0,0,1-.59-1.45,5.27,5.27,0,0,1,.48-2.09l6.83-17.11q5.76-14.67,5.7-15.73Z"/><path class="cls-2" d="M128.61,61.46q-1.37.09-1.28,1.38a1.23,1.23,0,0,0,.19.52l7.37,14.13a1.62,1.62,0,0,0,1.66.89.81.81,0,0,0,.85-1q0-.3-7.75-15.25a1,1,0,0,0-1-.7Z"/><path class="cls-2" d="M143.52,86.18,115.91,88q-1.74.11-1.66,1.48.07,1.14,1.51,1l28.36-1.83a6.1,6.1,0,0,0,2.65-.82,2,2,0,0,0,1.21-2q-.09-1.37-1.6-1.27a9.64,9.64,0,0,0-1.13.76,3.69,3.69,0,0,1-1.74.8Z"/><path class="cls-6" d="M166.95,40.23a32.54,32.54,0,0,1,23-11.35,32.94,32.94,0,0,1,35.18,31.06,33.47,33.47,0,0,1-8,24.35,31.74,31.74,0,0,1-22.91,11.57,33.5,33.5,0,0,1-35.57-31.33,32.62,32.62,0,0,1,8.34-24.3Zm18.83,22.92c0,.56,2.73,2.62,3.16,3s1.7,1.82,2.4,1.77,5.17.67,5.57.21a9.19,9.19,0,0,0,1.15-3.37c0-.66.07-4.94-.42-5.38s-4.1-2.82-4.73-2.78-6.12,1.76-6.55,2.25-.61,3.67-.57,4.32Z"/><path class="cls-2" d="M168.36,41.48A30.65,30.65,0,0,1,190,30.77,31,31,0,0,1,223.2,60.06a31.56,31.56,0,0,1-7.56,23A29.85,29.85,0,0,1,194.06,94a31.61,31.61,0,0,1-33.56-29.56,30.72,30.72,0,0,1,7.87-22.92Zm19.73,21.29a3.3,3.3,0,0,0,1.34,2.51,4,4,0,0,0,3,1A3.65,3.65,0,0,0,196,62.26a3.75,3.75,0,0,0-1.3-2.79,4,4,0,0,0-6.61,3.3Z"/><path class="cls-6" d="M172.61,45.25A25,25,0,0,0,166.15,64,25.94,25.94,0,0,0,193.69,88.3a24.2,24.2,0,0,0,17.63-8.9,25.86,25.86,0,0,0,6.23-19,25.62,25.62,0,0,0-44.94-15.18Zm9.83,17.89a9.69,9.69,0,0,1,9-10.27,9.24,9.24,0,0,1,7,2.36,9.41,9.41,0,0,1,3.19,6.67A9.32,9.32,0,0,1,192.8,72a9.59,9.59,0,0,1-7-2.36,9,9,0,0,1-3.36-6.51Z"/><path class="cls-2" d="M174.33,48.06q.09,1.47,1.49,1.38a1.3,1.3,0,0,0,1.37-1.57q-.08-1.33-1.55-1.23t-1.31,1.42Z"/><path class="cls-2" d="M174.61,51.22a1.35,1.35,0,0,0-.59-1.15,2.41,2.41,0,0,0-.74-.1q-.81.05-1.7,2.18-2.86,7.06-2.56,11.78a17.73,17.73,0,0,0,.69,3.95,24.93,24.93,0,0,0,8.72,13.19,21.61,21.61,0,0,0,15,4.36,26.09,26.09,0,0,0,6.46-1.53q4.83-1.64,4.72-3.41a1,1,0,0,0-1.17-1,5.5,5.5,0,0,0-1.79.85q-1.7,1-1.92,1.09a17.2,17.2,0,0,1-6.16,1.51,20,20,0,0,1-14.8-5.15,19.43,19.43,0,0,1-7.11-13.92,23.4,23.4,0,0,1,2.39-11,5.47,5.47,0,0,0,.56-1.59Z"/><path class="cls-2" d="M186.88,48.5q-3.54,1-3.47,2.15.09,1.47,1.34,1.39A18.27,18.27,0,0,0,187.37,51a11.88,11.88,0,0,1,3.87-1.14,11.44,11.44,0,0,1,8.83,3.35,12.59,12.59,0,0,1,4.23,8.6,12.42,12.42,0,0,1-.41,3.32,17.66,17.66,0,0,0-.47,2.43q.07,1,1.24,1t1.8-3a16.32,16.32,0,0,0,.33-4,14.62,14.62,0,0,0-4.89-10.22,13.69,13.69,0,0,0-10.51-3.72,20.6,20.6,0,0,0-4.51,1Z"/><path class="cls-7" d="M305,84.78A15.23,15.23,0,0,1,309.57,95a14.8,14.8,0,0,1-2.05,8A31.82,31.82,0,0,1,296,114.6a33,33,0,0,1-15.61,4.82,33.65,33.65,0,0,1-35-31.88,33.51,33.51,0,0,1,31.91-35.17c11.88-.56,22,3.71,28.64,13.89A15.58,15.58,0,0,1,305,84.78Zm-23.33.89-.59-.53a6.66,6.66,0,0,0-2.27-1.5,1.69,1.69,0,0,0-1.37.7,2.06,2.06,0,0,0-.62,1.66,2.33,2.33,0,0,0,.82,1.4c.13.13.5.51.72.5a2.64,2.64,0,0,0,1.31-.32c.69-.61,1.35-1.26,2-1.91Z"/><path class="cls-2" d="M302.32,84.91l.48.4a13.5,13.5,0,0,1,4.89,9.76,12.91,12.91,0,0,1-1.81,7A29.92,29.92,0,0,1,295.05,113a31.15,31.15,0,0,1-14.72,4.56,31.76,31.76,0,0,1-33-30.07A31.61,31.61,0,0,1,277.4,54.27c11.24-.53,20.75,3.44,27,13a13.55,13.55,0,0,1,2.27,6.77,13.68,13.68,0,0,1-3.72,10.23q-.29.31-.6.61Zm-17.81.64c-.75-.57-1.47-1.19-2.14-1.81s-2.41-2.05-3.63-2A3.55,3.55,0,0,0,276,83.08a3.93,3.93,0,0,0-1.09,3,4,4,0,0,0,1.37,2.65,2.82,2.82,0,0,0,2.14,1,4,4,0,0,0,2.47-.79c1.24-1.1,2.39-2.3,3.6-3.45Z"/><path class="cls-7" d="M259.67,68.39a25.14,25.14,0,0,0-6.73,18.8,26.09,26.09,0,0,0,27.12,24.66,25.46,25.46,0,0,0,12.08-3.75A24.28,24.28,0,0,0,301,99.24a7.27,7.27,0,0,0,1.07-3.9,7.82,7.82,0,0,0-2.92-5.72A8.46,8.46,0,0,0,293,87.39a6.85,6.85,0,0,0-4.37,2.06q-2.09,2-4,3.82a10,10,0,0,1-5.95,2.21,8.26,8.26,0,0,1-6.4-2.7,9.54,9.54,0,0,1-.51-13.46,9.17,9.17,0,0,1,6.68-3.24q3.76-.18,7.73,3.49t6.7,3.54a8.3,8.3,0,0,0,5.89-2.68A8,8,0,0,0,301,74.34a7.8,7.8,0,0,0-1.36-3.94q-7.16-11.15-22-10.45a25,25,0,0,0-18,8.44Z"/><path class="cls-2" d="M273.93,71.76q-3.49,1.05-3.43,2.53.05,1.18,1.16,1.13a23.92,23.92,0,0,0,2.68-1.05,12.51,12.51,0,0,1,4.08-1.12,11.55,11.55,0,0,1,6.72,1.69q.84.55,4.3,3.65,2.23,1.9,3.85,1.82a5.52,5.52,0,0,0,2.48-.71q1.44-.74,1.39-1.84a1,1,0,0,0-1.23-1.13,2.59,2.59,0,0,0-1.12.53,2.69,2.69,0,0,1-1.34.54q-1,0-3.11-1.85a26,26,0,0,0-4.51-3.42,13.24,13.24,0,0,0-7.16-1.66,19.26,19.26,0,0,0-4.76.89Z"/><path class="cls-2" d="M263,72.72a1.48,1.48,0,1,0-1.54-1.41A1.31,1.31,0,0,0,263,72.72Z"/><path class="cls-2" d="M260.85,76.23a5.13,5.13,0,0,0,.57-2q0-1-.86-1-2.06.1-3.56,6.09a30.23,30.23,0,0,0-1,8,21.78,21.78,0,0,0,7.67,15.87,22.69,22.69,0,0,0,16.66,6,28,28,0,0,0,6.58-1.35q5-1.57,4.94-3.27a1.11,1.11,0,0,0-1.31-1.2,3.34,3.34,0,0,0-1.16.42,21.14,21.14,0,0,1-9.17,2.73,20.19,20.19,0,0,1-14.86-5.27A19.43,19.43,0,0,1,258.54,87a24,24,0,0,1,2.3-10.78Z"/><path class="cls-8" d="M347,79.94l.92,20a16.23,16.23,0,0,1-4,11.84A15.9,15.9,0,0,1,332.47,117a15.26,15.26,0,0,1-12-4.61,17,17,0,0,1-4.69-11.28l-.91-19.66a14.59,14.59,0,0,1-9-4,15.92,15.92,0,0,1-.67-22.08A15.74,15.74,0,0,1,316,50.56l24.54-1.15c3.79-.18,8.15-.06,11.57,1.75,5,2.66,7,7.84,7.28,13.26a14.91,14.91,0,0,1-3.9,10.77A14.51,14.51,0,0,1,347,79.94Z"/><path class="cls-2" d="M345,78.24,346,100a14.34,14.34,0,0,1-3.54,10.49,14,14,0,0,1-10.09,4.62,13.38,13.38,0,0,1-10.59-4,15.15,15.15,0,0,1-4.16-10l-1-21.43A12.82,12.82,0,0,1,307.08,76a14,14,0,0,1-.61-19.39,13.86,13.86,0,0,1,9.62-4.19l24.54-1.15c3.39-.16,7.53-.09,10.6,1.53,4.4,2.33,6.05,6.94,6.27,11.68a13,13,0,0,1-3.42,9.42,12.61,12.61,0,0,1-9,4.3Z"/><path class="cls-8" d="M308.55,66.5A7.64,7.64,0,0,0,311,71.9a7.19,7.19,0,0,0,5.51,2l5.56-.26,1.26,27.11a9.46,9.46,0,0,0,2.58,6.36,7.75,7.75,0,0,0,6.25,2.31,8.38,8.38,0,0,0,6.14-2.73,8.65,8.65,0,0,0,2.1-6.43l-1.27-27.42,5.79-.27a7.77,7.77,0,0,0,5-2.41,7.24,7.24,0,0,0,2-5.37q-.24-5.27-3.26-6.91-2.22-1.14-7.7-.88l-24.54,1.15a8.22,8.22,0,0,0-5.8,2.45,7.66,7.66,0,0,0-2,5.92Z"/><path class="cls-2" d="M312.36,63.6q.07,1.55,1.54,1.48a1.37,1.37,0,0,0,1.47-1.62q-.07-1.47-1.61-1.4a1.3,1.3,0,0,0-1.4,1.54Z"/><path class="cls-2" d="M313.33,66a1.44,1.44,0,0,0-1.54,1.7,3.24,3.24,0,0,0,1.9,2.55,5.61,5.61,0,0,0,3.13.86l4.78-.22q1.54-.07,1.47-1.54-.05-1.08-1.28-1l-4.71.22a2.7,2.7,0,0,1-2.42-1.25q-1-1.31-1.34-1.3Z"/><path class="cls-2" d="M326.37,72.26q-1.23.06-1.14,2l1.18,25.56q.32,7,5.42,6.73,1.7-.08,1.63-1.47a1.09,1.09,0,0,0-1.13-1.11,7.9,7.9,0,0,1-2.19-.6q-1.2-.88-1.32-3.51l-1.19-25.72q-.09-1.94-1.25-1.88Z"/><path class="cls-2" d="M337.59,69q.05,1.16,1.52,1.09l4.94-.23a6.2,6.2,0,0,0,2.71-.79,2.06,2.06,0,0,0,1.26-2q-.06-1.39-1.61-1.32l-1.12.75a4,4,0,0,1-1.82.78l-4.17.2q-1.77.08-1.71,1.48Z"/><path class="cls-1" d="M387.9,99.37a16.94,16.94,0,0,1-3.8,10.07,15.94,15.94,0,0,1-11.9,5.68c-10.62.5-16-7.24-16.47-17.14l-1.51-32.54a20,20,0,0,1,2.19-9.74c2.59-5.29,7.89-7.41,13.46-7.67l11.88-.56a25,25,0,0,1,19,7A26.49,26.49,0,0,1,409,72.88a25.07,25.07,0,0,1-6.64,18.39,24.67,24.67,0,0,1-14.43,8.09Z"/><path class="cls-2" d="M386,97.7a15.45,15.45,0,0,1-3.39,10.52,14.06,14.06,0,0,1-10.53,5c-9.54.45-14.09-6.48-14.5-15.34l-1.51-32.54a18.13,18.13,0,0,1,2-8.81c2.27-4.64,7-6.38,11.85-6.61l11.88-.56a23.12,23.12,0,0,1,17.62,6.44A24.59,24.59,0,0,1,407.08,73a23.17,23.17,0,0,1-6.15,17A22.72,22.72,0,0,1,386,97.7Z"/><path class="cls-1" d="M363.19,59a12.44,12.44,0,0,0-1.42,6l1.51,32.54q.48,10.3,8.58,9.92a8.43,8.43,0,0,0,6.44-2.94,9.88,9.88,0,0,0,2.07-7l-.24-5.27,4.32-.2a17.07,17.07,0,0,0,12.29-5.93,17.48,17.48,0,0,0,4.7-13,18.9,18.9,0,0,0-5.87-13.31A17.47,17.47,0,0,0,382.1,55l-11.88.56q-5.48.26-7,3.44Zm16,17.49L379,71l1.93-.09q3.78-.18,3.91,2.69.13,2.71-4.43,2.92l-1.16.05Z"/><path class="cls-2" d="M365.84,61.24q.07,1.55,1.54,1.48,1.7-.08,1.63-1.63t-1.77-1.39a1.3,1.3,0,0,0-1.4,1.54Z"/><path class="cls-2" d="M366.18,63.64q-1.31.06-1.24,1.61l1.49,32.07q.36,7.75,5.37,7.51,1.85-.09,1.79-1.4-.05-1.16-2-1.46-2.26-.36-2.43-4l-1.52-32.84q-.07-1.55-1.46-1.48Z"/><path class="cls-2" d="M379.11,65.67q-1.47.07-1.39,1.62,0,1,3,1.1a13.42,13.42,0,0,1,4.68.79,4.21,4.21,0,0,1,2.22,2.77l.43,2.58a1.27,1.27,0,0,0,1.45,1.21,1.16,1.16,0,0,0,1.25-1.38q-.43-9.22-11.61-8.69Z"/><path class="cls-2" d="M389.64,84.27a18.06,18.06,0,0,1-3.31,1.94,26.74,26.74,0,0,1-6.07.75q-1.47.07-1.4,1.46t3.23,1.25q7.18-.34,11.07-4.63a1.41,1.41,0,0,0,.42-1q-.06-1.39-1.3-1.34a11,11,0,0,0-2.63,1.6Z"/><path class="cls-5" d="M421.2,112.81a14.37,14.37,0,0,1-12.62-6A19.66,19.66,0,0,1,405,95.91L403.5,64.28c-.47-10.11,4.55-18,15.21-18.54s16.31,7,16.78,17L437,94.56c.48,10.36-5.15,17.76-15.76,18.26Z"/><path class="cls-2" d="M421.11,110.92a12.49,12.49,0,0,1-11-5.25,17.77,17.77,0,0,1-3.25-9.85l-1.47-31.63c-.42-9.07,3.83-16.11,13.41-16.56s14.39,6.2,14.81,15.23l1.47,31.79c.43,9.32-4.4,15.82-14,16.27Z"/><path class="cls-5" d="M420.85,105.24q9-.42,8.57-10.33l-1.47-31.79q-.47-10.21-8.89-9.82t-8,10.61l1.47,31.63a12.09,12.09,0,0,0,2.15,6.75,6.85,6.85,0,0,0,6.19,2.94Z"/><path class="cls-2" d="M418.17,58.89q-.07-1.46-1.6-1.39A1.29,1.29,0,0,0,415.18,59q.07,1.54,1.52,1.47a1.74,1.74,0,0,0,1.46-1.61Z"/><path class="cls-2" d="M416.66,62.89a1.22,1.22,0,0,0-1.44-1.32q-1.15.05-1.09,1.28l1.5,32.4q.33,7.22,5.15,7,1.76-.08,1.7-1.46-.05-1.15-1.67-1.38a2.52,2.52,0,0,1-2.09-1.17,8.34,8.34,0,0,1-.57-3.09l-1.49-32.25Z"/><path class="cls-3" d="M484.53,73.14a23.29,23.29,0,0,1,5,13.46,23,23,0,0,1-22,24l-15.71.74a18.25,18.25,0,0,1-11.59-3.07,15.24,15.24,0,0,1-6.36-12.17L432.23,61a16,16,0,0,1,15.09-16.63l13.62-.64a22.39,22.39,0,0,1,16.85,6.31,23.34,23.34,0,0,1,7.49,16.25,22.09,22.09,0,0,1-.75,6.82Z"/><path class="cls-2" d="M482.43,73.56a21.43,21.43,0,0,1,5.16,13.13,21.13,21.13,0,0,1-20.16,22.06l-15.71.74a16.4,16.4,0,0,1-10.42-2.73,13.35,13.35,0,0,1-5.56-10.7l-1.63-35.12A14.1,14.1,0,0,1,447.4,46.29L461,45.65a20.51,20.51,0,0,1,15.47,5.8,21.44,21.44,0,0,1,6.9,15,20.22,20.22,0,0,1-1,7.15Z"/><path class="cls-3" d="M442,54.69a8,8,0,0,0-2.2,6l1.63,35.12a7.73,7.73,0,0,0,3.16,6.31,10.88,10.88,0,0,0,6.9,1.7l15.71-.74a15,15,0,0,0,10.74-5,14.81,14.81,0,0,0,4-11.09,16.26,16.26,0,0,0-6.22-12.09,15.19,15.19,0,0,0,2-8.19,15.75,15.75,0,0,0-5.13-11.09,14.87,14.87,0,0,0-11.33-4.26L447.66,52A8,8,0,0,0,442,54.69ZM457.41,71.6l-.19-4.12,1.93-.09q3.17-.15,3.27,1.95T459.5,71.5l-2.09.1Zm.53,11.5,3-.14q3.64-.17,3.74,2t-2.84,2.24l-3.71.17-.2-4.27Z"/><path class="cls-2" d="M443.74,57.6q.07,1.55,1.54,1.48a1.37,1.37,0,0,0,1.48-1.63q-.08-1.63-1.62-1.56t-1.39,1.7Z"/><path class="cls-2" d="M444.07,59.84q-1.32.06-1.25,1.46l1.6,34.5q.14,3,2.3,2.85.93,0,.86-1.44a12.81,12.81,0,0,0-.37-2.12,12.91,12.91,0,0,1-.37-2.2l-1.47-31.7q-.06-1.4-1.3-1.34Z"/><path class="cls-2" d="M456.82,62a1.28,1.28,0,0,0-1,1.45,1.09,1.09,0,0,0,1.14,1.11q-.39-.06,1.78-.16,6.5-.31,6.77,5.52.07,1.55,1.16,1.5,1.7-.08,1.59-2.57a6.62,6.62,0,0,0-3-5.62,10.72,10.72,0,0,0-6.42-1.41,13.68,13.68,0,0,0-2,.17Z"/><path class="cls-2" d="M461.18,77.5l-3.25.15q-1.47.07-1.42,1.16.06,1.32,2.16,1.38l3-.14a6.12,6.12,0,0,1,4.65,1.57,7.84,7.84,0,0,1,1.33,3.6q.41,2.08,1.49,2,1.47-.07,1.34-2.79-.34-7.38-9.32-7Z"/><path class="cls-2" d="M466.6,97.49,455.15,98a1.1,1.1,0,0,0-1.18,1.3q.06,1.32,1.14,1.27L468,100a9.55,9.55,0,0,0,3-.69q2-.79,1.93-2-.07-1.55-1.39-1.49a9.74,9.74,0,0,0-2,.79,8.11,8.11,0,0,1-3,.84Z"/></g></g></svg>